<svg width="20" height="20" viewBox="0 0 60 45" fill="none" xmlns="http://www.w3.org/2000/svg">
<path fill-rule="evenodd" clip-rule="evenodd" d="M42.042 10.0477C45.3889 9.3103 48.3156 8.61245 53.6741 6.71318C53.6758 6.75 53.6774 6.78735 53.6789 6.82523C53.7647 8.99681 53.4017 12.3049 52.3728 16.0115C50.2926 23.5056 45.7833 31.6466 38.1477 35.3573C31.3844 38.6442 24.8059 38.6828 18.8918 37.8206C16.7229 37.5043 14.6813 37.0737 12.7381 36.6394C15.1316 35.8043 17.7013 34.8625 20.1884 33.8778C22.7931 32.8465 25.3458 31.7529 27.5264 30.6713C29.6398 29.6231 31.6423 28.4721 32.9659 27.2808L28.9521 22.8211C28.2757 23.4298 26.9032 24.283 24.8604 25.2962C22.8847 26.2761 20.4999 27.3012 17.9796 28.2991C14.6786 29.6061 11.2113 30.8403 8.24382 31.8359C9.03681 29.7809 10.095 27.5837 11.4615 25.4466C14.5169 20.6683 18.996 16.3616 25.3357 14.4245C33.6111 11.8959 37.7879 10.9804 41.2777 10.2155C41.5358 10.159 41.7901 10.1032 42.042 10.0477ZM40.7703 40.7538C50.6347 35.9599 55.8648 25.8643 58.1542 17.6163C59.3102 13.4518 59.7897 9.51248 59.6743 6.58858C59.6189 5.18719 59.4183 3.71577 58.8819 2.5414C58.6148 1.95654 58.1268 1.13853 57.233 0.574971C56.1858 -0.0854255 54.9754 -0.149408 53.9171 0.242506C47.3146 2.6877 44.3243 3.40096 40.751 4.18825C40.5024 4.24302 40.2511 4.29813 39.9957 4.35413L39.9942 4.35445C36.4317 5.13549 32.0843 6.08861 23.5824 8.68641C15.522 11.1493 10.0012 16.5927 6.40655 22.2143C2.83085 27.8064 1.04438 33.7448 0.489182 37.6312L0 41.0555H3.45903C4.81365 41.0555 6.66253 41.4209 9.26926 42.0074C9.54913 42.0704 9.83563 42.1354 10.1284 42.2017L10.1284 42.2017C12.4347 42.7246 15.1285 43.3353 18.0262 43.7578C24.6121 44.718 32.5336 44.7567 40.7703 40.7538Z" fill="black"/>
</svg>
